# xmcd
#
# Track frame offsets:
#	182
#	18817
#	36555
#	55712
#	76625
#	95120
#	112250
#	132635
#
# Disc length: 2039 seconds
#
# Revision: 5
# Processed by: cddbd v1.5.2PL0 Copyright (c) Steve Scherf et al.
# Submitted via: EasyCDDAExtractor 15.3.0.1
#
DISCID=6807f508
DTITLE=Olga Tañon - Sola
DYEAR=1992
DGENRE=Latin
TTITLE0=Sola
TTITLE1=Quiero Estar Contigo
TTITLE2=Besame Agresivamente
TTITLE3=Me Cambio Por Ella
TTITLE4=No Te Das Cuenta (Oye, Oye)
TTITLE5=Fragmentos
TTITLE6=Una Mujer Rota
TTITLE7=Aventurero Amor
EXTD=
EXTT0=
EXTT1=
EXTT2=
EXTT3=
EXTT4=
EXTT5=
EXTT6=
EXTT7=
PLAYORDER=
